HIERARCHY
ROOT pelvis
{
  OFFSET 0 100 0
  CHANNELS 6 Xposition Yposition Zposition Zrotation Xrotation Yrotation
  JOINT pelvis_right_femur
  {
    OFFSET -10.78128 -3.44521 -0.5502486
    CHANNELS 3 Zrotation Xrotation Yrotation
    JOINT right_femur_tibia
    {
      OFFSET -0.8047443 -44.0398 -0.1307829
      CHANNELS 3 Zrotation Xrotation Yrotation
      JOINT right_tibia_foot
      {
        OFFSET 3.006224 -47.83518 -5
        CHANNELS 3 Zrotation Xrotation Yrotation
        End Site
        {
          OFFSET 0 -5 15
        }
      }
    }
  }
  JOINT pelvis_left_femur
  {
    OFFSET 10.78128 -3.44521 -0.5502486
    CHANNELS 3 Zrotation Xrotation Yrotation
    JOINT left_femur_tibia
    {
      OFFSET 0.8047443 -44.0398 -0.1307829
      CHANNELS 3 Zrotation Xrotation Yrotation
      JOINT left_tibia_foot
      {
        OFFSET -4.370144 -48.10324 -4.275266
        CHANNELS 3 Zrotation Xrotation Yrotation
        End Site
        {
          OFFSET 0 -5 15
        }
      }
    }
  }
  JOINT pelvis_spine1
  {
    OFFSET 0 6.468898 -3.129235
    CHANNELS 3 Zrotation Xrotation Yrotation
    JOINT spine1
    {
      OFFSET 0 23.15396 4.99043
      CHANNELS 3 Zrotation Xrotation Yrotation
      JOINT spine2
      {
        OFFSET 0 20.79997 -5.064912
        CHANNELS 3 Zrotation Xrotation Yrotation
        JOINT neck
        {
          OFFSET 0 14.38658 9.616178
          CHANNELS 3 Zrotation Xrotation Yrotation
          End Site
          {
            OFFSET 0 20 0
          }
        }
      }
      JOINT right_manubrium
      {
        OFFSET -5.722621 16.35077 3.967754
        CHANNELS 3 Zrotation Xrotation Yrotation
        JOINT right_clavicle
        {
          OFFSET -13.16364 1.694482 -4.693211
          CHANNELS 3 Zrotation Xrotation Yrotation
          JOINT right_humerus
          {
            OFFSET -28.5034 -0.3100689 -2.792744
            CHANNELS 3 Zrotation Xrotation Yrotation
            JOINT right_radius
            {
              OFFSET -25.15693 0.02248979 -1.271978
              CHANNELS 3 Zrotation Xrotation Yrotation
              End Site
              {
                OFFSET -15 0 0
              }
            }
          }
        }
      }
      JOINT left_manubrium
      {
        OFFSET 5.722621 16.35077 3.967754
        CHANNELS 3 Zrotation Xrotation Yrotation
        JOINT left_clavicle
        {
          OFFSET 13.16364 1.694482 -4.693211
          CHANNELS 3 Zrotation Xrotation Yrotation
          JOINT left_humerus
          {
            OFFSET 29.39168 -1.063119 -2.237045
            CHANNELS 3 Zrotation Xrotation Yrotation
            JOINT left_radius
            {
              OFFSET 24.59957 -0.9528479 0.9047498
              CHANNELS 3 Zrotation Xrotation Yrotation
              End Site
              {
                OFFSET 15 -0 -0
              }
            }
          }
        }
      }
    }
  }
}
MOTION
Frames: 17
Frame Time: 0.0416666666667
251.4825 102.3922 3050.909 0.5979335 -6.205925 1.186539 3.460916 15.77995 1.163273 -0 11.26846 -0 -5.087156 -12.69277 -0.1849947 1.378573 -23.32313 -4.075992 -0 15.11719 -0 -2.474707 -7.298455 19.07189 -0.270982 -1.480834 8.838529 -1.044134 14.30366 -3.646326 0.8968433 21.24999 4.301383 2.782965 -19.52995 4.60296 -1.552965 -27.71475 12.46994 85.71304 21.62043 -6.629207 -0 0 25.18166 -26.0179 10.32794 14.74978 3.384366 -19.90492 -5.915681 -94.64745 10.43455 33.48022 0 0 -4.799286 8.379572 11.28628 1.913908
252.5639 101.1965 3057.148 0.7938998 -6.646178 0.9212921 2.711883 16.43106 1.307906 -0 16.29444 -0 -4.401819 -11.05485 -0.3327774 0.8228445 -22.86983 -4.45874 -0 13.37284 -0 -2.727652 -7.711262 19.19534 -0.2925599 -1.47731 9.114964 -1.148093 14.30218 -3.467071 0.8715362 21.17331 4.304693 2.798339 -19.47057 4.557551 -1.394192 -28.02794 12.53378 85.13731 21.80796 -5.944479 -0 0 26.00838 -26.31471 10.47503 15.06723 3.278767 -19.56603 -5.77362 -95.1517 10.44968 34.47371 0 0 -4.044515 7.892819 11.15577 2.570364
253.6766 100.377 3063.529 1.047193 -7.272504 0.8792077 1.883828 16.13359 1.672437 -0 23.03374 -0 -3.521563 -8.627567 -0.841875 -0.1101414 -21.10219 -5.105043 -0 13.76094 -0 -3.266454 -8.141234 19.12484 -0.3208851 -1.471964 9.201644 -1.163424 14.26446 -3.450786 0.854826 21.11243 4.35375 2.818617 -19.44112 4.573532 -1.222862 -28.02982 12.57336 84.86177 22.06662 -5.826039 -0 0 26.23747 -26.42511 10.6549 15.16947 3.261051 -19.4523 -5.686609 -95.27332 10.63046 34.69957 0 0 -4.027583 7.56761 11.03893 3.023646
254.8079 100.0718 3070.044 1.346793 -7.953497 1.089581 1.017424 14.78648 2.126854 -0 30.83003 -0 -2.512881 -5.634304 -1.63263 -1.317858 -18.11064 -5.969772 -0 15.25134 -0 -3.940017 -8.736851 18.90007 -0.3519236 -1.467486 9.118874 -1.09999 14.20248 -3.578515 0.8452984 21.06766 4.438421 2.842601 -19.44303 4.639039 -1.054471 -27.76754 12.58989 84.87196 22.37226 -6.211697 -0 0 25.93399 -26.36377 10.84936 15.07635 3.320874 -19.54701 -5.656248 -95.05063 10.935 34.24938 0 0 -4.651766 7.415837 10.94772 3.254656
255.9491 100.3236 3076.635 1.667858 -8.516973 1.562661 0.2023257 12.19019 2.5583 -0 38.79138 -0 -1.491873 -2.422818 -2.607658 -2.68903 -13.9626 -7.038988 -0 16.94687 -0 -4.557117 -9.6375 18.57658 -0.3823268 -1.468316 8.882699 -0.9631391 14.12788 -3.839807 0.8397963 21.03582 4.552538 2.871244 -19.48168 4.743778 -0.8961092 -27.27869 12.58768 85.16061 22.70987 -7.062945 -0 0 25.14614 -26.13802 11.04553 14.80026 3.450641 -19.84403 -5.684057 -94.5109 11.31473 33.18985 0 0 -5.854393 7.453217 10.89134 3.241416
257.0881 101.0553 3083.18 1.951749 -8.750032 2.262196 -0.404679 8.252395 2.879604 -0 45.51404 -0 -0.6743736 0.4110812 -3.593969 -4.046608 -8.947177 -8.287528 -0 18.11725 -0 -4.879656 -10.89952 18.24682 -0.4097383 -1.480148 8.506881 -0.7548792 14.05082 -4.229725 0.8339298 21.01107 4.693177 2.907227 -19.56612 4.879148 -0.7469634 -26.59422 12.57327 85.72166 23.07374 -8.355202 -0 0 23.91294 -25.74786 11.23424 14.34837 3.644441 -20.34255 -5.769559 -93.67896 11.71981 31.57572 0 0 -7.593598 7.695518 10.87649 2.964378
258.2043 102.0551 3089.524 2.105424 -8.469945 3.09061 -0.6199416 3.211483 3.035544 -0 49.21087 -0 -0.3508491 2.142502 -4.340101 -5.142601 -3.715111 -9.620138 -0 18.30691 -0 -4.701515 -12.42876 18.0107 -0.432883 -1.508313 8.014717 -0.4809402 13.97953 -4.735594 0.8230063 20.98634 4.857 2.953493 -19.70442 5.035648 -0.6013088 -25.75673 12.55453 86.52846 23.45992 -10.03542 -0 0 22.30382 -25.19958 11.4067 13.73801 3.892147 -21.02732 -5.905413 -92.60568 12.09905 29.50152 0 0 -9.793222 8.142202 10.90508 2.426994
259.2686 103.026 3095.558 2.050204 -7.660715 3.924555 -0.3552378 -2.385897 2.980862 -0 48.61248 -0 -0.6986422 2.416555 -4.66528 -5.767677 1.001211 -10.82897 -0 17.47179 -0 -4.023345 -14.0166 17.86427 -0.4516943 -1.55557 7.444872 -0.1557476 13.91908 -5.328184 0.8035567 20.95557 5.037615 3.011493 -19.89835 5.202123 -0.4524131 -24.82856 12.53868 87.52055 23.8608 -11.9962 -0 0 20.43955 -24.51656 11.55337 13.0067 4.176362 -21.85516 -6.075162 -91.38151 12.40933 27.12802 0 0 -12.31022 8.763616 10.97265 1.671023
260.2517 103.6909 3101.29 1.778316 -6.502831 4.67425 0.3010264 -8.019878 2.664612 -0 43.80645 -0 -1.624689 1.556558 -4.606501 -5.88171 4.870692 -11.66405 -0 15.92647 -0 -3.096353 -15.48619 17.65655 -0.4673075 -1.620962 6.838836 0.2019002 13.86944 -5.97045 0.7747136 20.91627 5.227317 3.080487 -20.14264 5.369474 -0.2955332 -23.87202 12.52939 88.62333 24.26705 -14.10946 -0 0 18.4536 -23.73139 11.66598 12.20014 4.478134 -22.76806 -6.258447 -90.10696 12.6322 24.63092 0 0 -14.97829 9.510376 11.07087 0.7630825
261.1295 103.8746 3106.828 1.349696 -5.248053 5.301699 1.154024 -13.40433 2.075895 -0 36.02866 -0 -2.86168 0.2389684 -4.348423 -5.605534 8.019199 -11.97867 -0 14.19527 -0 -2.244785 -16.75784 17.21262 -0.4815516 -1.700585 6.227131 0.5753856 13.8259 -6.630306 0.7381779 20.87002 5.419718 3.158091 -20.42785 5.533444 -0.129065 -22.9293 12.52589 89.77463 24.67036 -16.27051 -0 0 16.4476 -22.8734 11.73915 11.35614 4.783404 -23.71349 -6.437744 -88.85836 12.77601 22.14132 0 0 -17.66374 10.33197 11.1913 -0.2301402
261.8882 103.5271 3112.327 0.856114 -4.126134 5.80358 2.013762 -18.31935 1.277759 -0 26.95688 -0 -4.129374 -0.9272325 -4.075466 -5.117303 10.67516 -11.75851 -0 12.93714 -0 -1.724914 -17.76885 16.4441 -0.4961656 -1.788624 5.638001 0.9469418 13.78276 -7.274708 0.6970649 20.82059 5.607842 3.240525 -20.74033 5.690857 0.04538788 -22.03781 12.52558 90.91098 25.06266 -18.37464 -0 0 14.51736 -21.97683 11.76981 10.51376 5.079115 -24.63746 -6.597265 -87.70173 12.86361 19.77921 0 0 -20.23605 11.17355 11.32633 -1.238145
262.5311 102.7231 3117.952 0.4020639 -3.338491 6.19391 2.743312 -22.37382 0.4120217 -0 18.38454 -0 -5.181959 -1.545562 -3.915507 -4.590463 12.8803 -11.07922 -0 12.89944 -0 -1.696579 -18.39159 15.38333 -0.5121037 -1.877678 5.113638 1.290443 13.73733 -7.856479 0.6549473 20.77207 5.780517 3.322217 -21.05945 5.834145 0.2226355 -21.25632 12.52697 91.93687 25.43663 -20.26817 -0 0 12.80333 -21.09794 11.7577 9.732092 5.345771 -25.46609 -6.7192 -86.72229 12.9242 17.71952 0 0 -22.50784 11.9616 11.46864 -2.168847
263.0824 101.6552 3123.838 0.08639424 -3.035932 6.491833 3.289778 -25.0223 -0.2988613 -0 12.00328 -0 -5.829302 -1.491375 -3.940502 -4.166114 14.44797 -10.10266 -0 14.7788 -0 -2.187207 -18.4475 14.1995 -0.5290346 -1.959524 4.706748 1.573575 13.69181 -8.318873 0.6153631 20.72804 5.923094 3.396123 -21.35817 5.951162 0.3933099 -20.6604 12.53058 92.73252 25.7865 -21.76178 -0 0 11.47817 -20.31374 11.7079 9.086244 5.558679 -26.11353 -6.787135 -86.01432 12.98791 16.17603 0 0 -24.25361 12.61116 11.61124 -2.91844
263.5787 100.5929 3130.045 -0.03863396 -3.249783 6.709721 3.707689 -25.86697 -0.6209239 -0 8.756361 -0 -6.009317 -0.9585525 -4.162826 -3.903579 15.11 -9.042186 -0 18.94671 -0 -3.066064 -17.80727 13.14218 -0.5453602 -2.026816 4.45948 1.769055 13.65229 -8.616813 0.5813162 20.69102 6.022696 3.455421 -21.60864 6.030054 0.5450711 -20.31023 12.53819 93.20053 26.10481 -22.70276 -0 0 10.6777 -19.70076 11.63312 8.641171 5.697138 -26.51444 -6.794251 -85.64087 13.07408 15.31133 0 0 -25.30069 13.05345 11.74614 -3.406587
264.0489 99.8031 3136.546 0.004393212 -3.864701 6.839823 4.119025 -24.88393 -0.4250649 -0 8.327532 -0 -5.83279 -0.398936 -4.526574 -3.751411 14.66066 -8.077319 -0 25.28316 -0 -4.100245 -16.4636 12.42566 -0.5589222 -2.074616 4.388332 1.863282 13.62588 -8.732285 0.5547649 20.66192 6.072714 3.495386 -21.78846 6.063759 0.6660765 -20.22718 12.55168 93.30158 26.37825 -23.02834 -0 0 10.45198 -19.31409 11.55173 8.4309 5.751472 -26.6462 -6.746209 -85.6118 13.18131 15.17461 0 0 -25.59305 13.25537 11.86278 -3.599446
264.4992 99.47599 3143.219 0.142145 -4.681971 6.844347 4.627401 -22.28196 0.2876391 -0 9.568177 -0 -5.518352 -0.3661933 -4.917806 -3.593521 12.94538 -7.327497 -0 33.24269 -0 -5.037935 -14.50855 12.19264 -0.5679036 -2.100865 4.48995 1.85467 13.61837 -8.668967 0.536327 20.6399 6.072414 3.514054 -21.88441 6.049975 0.7486607 -20.40302 12.57282 93.04357 26.59037 -22.74829 -0 0 10.7855 -19.18192 11.48109 8.461663 5.72123 -26.51876 -6.654521 -85.90427 13.29123 15.73232 0 0 -25.16271 13.2138 11.94979 -3.499615
264.9154 99.68133 3149.872 0.2942347 -5.495248 6.66352 5.239055 -18.32574 1.401794 -0 11.28078 -0 -5.280652 -1.306712 -5.194613 -3.327773 9.869809 -6.867873 -0 41.80992 -0 -5.665025 -12.12929 12.52213 -0.571586 -2.106244 4.75255 1.748825 13.63223 -8.440596 0.5253159 20.62295 6.024827 3.512136 -21.89457 5.989848 0.7920784 -20.81808 12.60298 92.45511 26.72985 -21.90592 -0 0 11.63635 -19.3053 11.43052 8.722284 5.610917 -26.155 -6.528032 -86.49091 13.38142 16.92393 0 0 -24.07422 12.94241 11.99962 -3.126865
